<svg width="925" height="882" viewBox="0 0 925 882" fill="none" xmlns="http://www.w3.org/2000/svg">
<g id="illustration-editor-desktop 1">
<g id="Group">
<path id="Vector" opacity="0.08" d="M785 446C785 611.685 650.685 746 485 746C319.315 746 185 611.685 185 446V444C185 278.315 319.315 144 485 144C650.685 144 785 278.315 785 444V446Z" fill="#2D2E40"/>
<path id="Vector_2" opacity="0.5" d="M824.5 442C824.5 629.501 672.501 781.5 485 781.5C297.499 781.5 145.5 629.501 145.5 442V440C145.5 252.499 297.499 100.5 485 100.5C672.501 100.5 824.5 252.499 824.5 440V442Z" stroke="#2D2E40"/>
<path id="Vector_3" opacity="0.25" d="M924.5 442C924.5 684.729 727.729 881.5 485 881.5C242.271 881.5 45.5 684.729 45.5 442V440C45.5 197.271 242.271 0.5 485 0.5C727.729 0.5 924.5 197.271 924.5 440V442Z" stroke="#2D2E40"/>
<g id="screen">
<mask id="mask0" mask-type="alpha" maskUnits="userSpaceOnUse" x="40" y="242" width="642" height="427">
<g id="d">
<path id="Vector_4" d="M667 242H55C46.7157 242 40 248.716 40 257V654C40 662.284 46.7157 669 55 669H667C675.284 669 682 662.284 682 654V257C682 248.716 675.284 242 667 242Z" fill="white"/>
</g>
</mask>
<g mask="url(#mask0)">
<g id="Group_2">
<g id="Vector_5" filter="url(#filter0_d)">
<path d="M667 242H55C46.7157 242 40 248.716 40 257V654C40 662.284 46.7157 669 55 669H667C675.284 669 682 662.284 682 654V257C682 248.716 675.284 242 667 242Z" fill="black"/>
</g>
<path id="Vector_6" d="M667 242H55C46.7157 242 40 248.716 40 257V654C40 662.284 46.7157 669 55 669H667C675.284 669 682 662.284 682 654V257C682 248.716 675.284 242 667 242Z" fill="url(#paint0_linear)"/>
</g>
<path id="Vector_7" d="M43 367H679C679.796 367 680.559 367.316 681.121 367.879C681.684 368.441 682 369.204 682 370V666C682 666.796 681.684 667.559 681.121 668.121C680.559 668.684 679.796 669 679 669H43C42.2044 669 41.4413 668.684 40.8787 668.121C40.3161 667.559 40 666.796 40 666V370C40 369.204 40.3161 368.441 40.8787 367.879C41.4413 367.316 42.2044 367 43 367Z" fill="#2D2E40"/>
<path id="Vector_8" d="M263.308 289.709H133.523C131.866 289.709 130.523 291.052 130.523 292.709V423.874C130.523 425.531 131.866 426.874 133.523 426.874H263.308C264.965 426.874 266.308 425.531 266.308 423.874V292.709C266.308 291.052 264.965 289.709 263.308 289.709Z" fill="white"/>
<path id="Vector_9" d="M198.416 398.248C220.124 398.248 237.722 380.626 237.722 358.888C237.722 337.15 220.124 319.528 198.416 319.528C176.708 319.528 159.11 337.15 159.11 358.888C159.11 380.626 176.708 398.248 198.416 398.248Z" fill="#2D2E40"/>
<path id="Vector_10" d="M588.477 289.709H291.939C290.282 289.709 288.939 291.052 288.939 292.709V612.326C288.939 613.983 290.282 615.326 291.939 615.326H588.477C590.134 615.326 591.477 613.983 591.477 612.326V292.709C591.477 291.052 590.134 289.709 588.477 289.709Z" fill="white"/>
</g>
</g>
<path id="Vector_11" d="M249 526C296.125 452.633 330.977 412.987 353.557 407.062C387.427 398.176 377.322 490.202 426.092 479.535C474.862 468.869 480.808 375.561 517.695 371.165C554.582 366.768 574.097 452.111 590.21 459.975C600.952 465.216 614.215 453.881 630 425.968" stroke="url(#paint1_linear)" stroke-width="8" stroke-linecap="round"/>
</g>
</g>
<defs>
<filter id="filter0_d" x="0" y="222" width="722" height="507" filterUnits="userSpaceOnUse" color-interpolation-filters="sRGB">
<feFlood flood-opacity="0" result="BackgroundImageFix"/>
<feColorMatrix in="SourceAlpha" type="matrix" values="0 0 0 0 0 0 0 0 0 0 0 0 0 0 0 0 0 0 127 0"/>
<feOffset dy="20"/>
<feGaussianBlur stdDeviation="20"/>
<feColorMatrix type="matrix" values="0 0 0 0 0.421822 0 0 0 0 0.554338 0 0 0 0 0.89371 0 0 0 0.243444 0"/>
<feBlend mode="normal" in2="BackgroundImageFix" result="effect1_dropShadow"/>
<feBlend mode="normal" in="SourceGraphic" in2="effect1_dropShadow" result="shape"/>
</filter>
<linearGradient id="paint0_linear" x1="40" y1="361.052" x2="572.2" y2="715.031" gradientUnits="userSpaceOnUse">
<stop stop-color="#FF8F71"/>
<stop offset="1" stop-color="#FF3E55"/>
</linearGradient>
<linearGradient id="paint1_linear" x1="249" y1="435.674" x2="584.853" y2="572.303" gradientUnits="userSpaceOnUse">
<stop stop-color="#FF8F71"/>
<stop offset="1" stop-color="#FF3E55"/>
</linearGradient>
</defs>
</svg>
