<svg width="498" height="359" viewBox="0 0 498 359" fill="none" xmlns="http://www.w3.org/2000/svg">
<g id="illustration-laptop-mobile 1">
<g id="Group">
<g id="Group_2">
<path id="Vector" opacity="0.08" d="M361 181.5C361 243.08 311.08 293 249.5 293C187.92 293 138 243.08 138 181.5C138 119.92 187.92 70 249.5 70C311.08 70 361 119.92 361 181.5Z" fill="#2D2E40"/>
<path id="Vector_2" opacity="0.5" d="M374.5 180C374.5 249.312 318.312 305.5 249 305.5C179.688 305.5 123.5 249.312 123.5 180C123.5 110.688 179.688 54.5 249 54.5C318.312 54.5 374.5 110.688 374.5 180Z" stroke="#2D2E40"/>
<path id="Vector_3" opacity="0.25" d="M411.5 180C411.5 269.746 338.746 342.5 249 342.5C159.254 342.5 86.5 269.746 86.5 180C86.5 90.2537 159.254 17.5 249 17.5C338.746 17.5 411.5 90.2537 411.5 180Z" stroke="#2D2E40"/>
</g>
<g id="Group_3" filter="url(#filter0_d)">
<path id="Vector_4" d="M364 92H136C129.373 92 124 97.3726 124 104V253C124 259.627 129.373 265 136 265H364C370.627 265 376 259.627 376 253V104C376 97.3726 370.627 92 364 92Z" fill="#535353"/>
<path id="Vector_5" d="M365 94H135C129.477 94 125 98.4772 125 104V254C125 259.523 129.477 264 135 264H365C370.523 264 375 259.523 375 254V104C375 98.4772 370.523 94 365 94Z" fill="#1D1D25"/>
<g id="Group_4">
<mask id="mask0" mask-type="alpha" maskUnits="userSpaceOnUse" x="132" y="100" width="237" height="158">
<g id="d">
<path id="Vector_6" d="M366 100H135C133.343 100 132 101.343 132 103V254.94C132 256.597 133.343 257.94 135 257.94H366C367.657 257.94 369 256.597 369 254.94V103C369 101.343 367.657 100 366 100Z" fill="white"/>
</g>
</mask>
<g mask="url(#mask0)">
<path id="Vector_7" d="M366 100H135C133.343 100 132 101.343 132 103V254.94C132 256.597 133.343 257.94 135 257.94H366C367.657 257.94 369 256.597 369 254.94V103C369 101.343 367.657 100 366 100Z" fill="url(#paint0_linear)"/>
<path id="Vector_8" d="M365.848 128.352H134.848C133.191 128.352 131.848 129.695 131.848 131.352V255.061C131.848 256.718 133.191 258.061 134.848 258.061H365.848C367.505 258.061 368.848 256.718 368.848 255.061V131.352C368.848 129.695 367.505 128.352 365.848 128.352Z" fill="#F9F6F6"/>
<g id="Group_5">
<g id="Group_6">
<path id="Vector_9" d="M212.429 117.615H168.478C166.821 117.615 165.478 118.958 165.478 120.615V235.25C165.478 236.907 166.821 238.25 168.478 238.25H212.429C214.086 238.25 215.429 236.907 215.429 235.25V120.615C215.429 118.958 214.086 117.615 212.429 117.615Z" fill="white"/>
<path id="Vector_10" d="M332.523 117.615H226.931C225.274 117.615 223.931 118.958 223.931 120.615V235.25C223.931 236.907 225.274 238.25 226.931 238.25H332.523C334.18 238.25 335.523 236.907 335.523 235.25V120.615C335.523 118.958 334.18 117.615 332.523 117.615Z" fill="white"/>
<path id="article1" d="M327.74 124.02H231.713C230.056 124.02 228.713 125.363 228.713 127.02V149.311C228.713 150.968 230.056 152.311 231.713 152.311H327.74C329.397 152.311 330.74 150.968 330.74 149.311V127.02C330.74 125.363 329.397 124.02 327.74 124.02Z" fill="#E7E7E7"/>
<path id="article2" d="M256.002 158.183H231.713C230.056 158.183 228.713 159.526 228.713 161.183V183.474C228.713 185.131 230.056 186.474 231.713 186.474H256.002C257.659 186.474 259.002 185.131 259.002 183.474V161.183C259.002 159.526 257.659 158.183 256.002 158.183Z" fill="#E7E7E7"/>
<path id="article3" d="M327.74 158.183H269.442C267.785 158.183 266.442 159.526 266.442 161.183V183.474C266.442 185.131 267.785 186.474 269.442 186.474H327.74C329.397 186.474 330.74 185.131 330.74 183.474V161.183C330.74 159.526 329.397 158.183 327.74 158.183Z" fill="#E7E7E7"/>
</g>
</g>
</g>
</g>
<g id="Group_7" opacity="0.098">
<path id="Vector_11" opacity="0.098" d="M254.62 85H249.5C249.224 85 249 85.2239 249 85.5C249 85.7761 249.224 86 249.5 86H254.62C254.896 86 255.12 85.7761 255.12 85.5C255.12 85.2239 254.896 85 254.62 85Z" fill="#4A5166"/>
<path id="Vector_12" opacity="0.098" d="M257.5 85H257.06C256.784 85 256.56 85.2239 256.56 85.5C256.56 85.7761 256.784 86 257.06 86H257.5C257.776 86 258 85.7761 258 85.5C258 85.2239 257.776 85 257.5 85Z" fill="#4A5166"/>
</g>
<g id="Group_8">
<mask id="mask1" mask-type="alpha" maskUnits="userSpaceOnUse" x="85" y="263" width="328" height="8">
<g id="f">
<path id="Vector_13" d="M88 263H409.953C410.749 263 411.512 263.316 412.074 263.879C412.637 264.441 412.953 265.204 412.953 266V270.602H85V266C85 265.204 85.3161 264.441 85.8787 263.879C86.4413 263.316 87.2044 263 88 263V263Z" fill="white"/>
</g>
</mask>
<g mask="url(#mask1)">
<path id="Vector_14" d="M88 263H409.953C410.749 263 411.512 263.316 412.074 263.879C412.637 264.441 412.953 265.204 412.953 266V270.602H85V266C85 265.204 85.3161 264.441 85.8787 263.879C86.4413 263.316 87.2044 263 88 263V263Z" fill="#52526F"/>
<path id="Vector_15" d="M265.76 244.374H232.193C226.67 244.374 222.193 248.851 222.193 254.374V257.561C222.193 263.084 226.67 267.561 232.193 267.561H265.76C271.283 267.561 275.76 263.084 275.76 257.561V254.374C275.76 248.851 271.283 244.374 265.76 244.374Z" fill="#2F2F47"/>
</g>
</g>
<path id="Vector_16" d="M85 271H413C413 271.796 412.684 272.559 412.121 273.121C411.559 273.684 410.796 274 410 274H88C87.2044 274 86.4413 273.684 85.8787 273.121C85.3161 272.559 85 271.796 85 271V271Z" fill="#393A56"/>
</g>
</g>
</g>
<defs>
<filter id="filter0_d" x="45" y="65" width="408" height="269" filterUnits="userSpaceOnUse" color-interpolation-filters="sRGB">
<feFlood flood-opacity="0" result="BackgroundImageFix"/>
<feColorMatrix in="SourceAlpha" type="matrix" values="0 0 0 0 0 0 0 0 0 0 0 0 0 0 0 0 0 0 127 0"/>
<feOffset dy="20"/>
<feGaussianBlur stdDeviation="20"/>
<feColorMatrix type="matrix" values="0 0 0 0 0.421822 0 0 0 0 0.554338 0 0 0 0 0.89371 0 0 0 0.243444 0"/>
<feBlend mode="normal" in2="BackgroundImageFix" result="effect1_dropShadow"/>
<feBlend mode="normal" in="SourceGraphic" in2="effect1_dropShadow" result="shape"/>
</filter>
<linearGradient id="paint0_linear" x1="132" y1="143.899" x2="328.485" y2="274.837" gradientUnits="userSpaceOnUse">
<stop stop-color="#FF8F71"/>
<stop offset="1" stop-color="#FF3E55"/>
</linearGradient>
</defs>
</svg>
