<svg width="406" height="331" viewBox="0 0 406 331" fill="none" xmlns="http://www.w3.org/2000/svg">
<g id="illustration-editor-mobile 1">
<g id="Group">
<g id="Group_2">
<path id="Vector" opacity="0.08" d="M315 164.5C315 226.08 265.08 276 203.5 276C141.92 276 92 226.08 92 164.5C92 102.92 141.92 53 203.5 53C265.08 53 315 102.92 315 164.5Z" fill="#2D2E40"/>
<path id="Vector_2" opacity="0.5" d="M328.5 163C328.5 232.312 272.312 288.5 203 288.5C133.688 288.5 77.5 232.312 77.5 163C77.5 93.6883 133.688 37.5 203 37.5C272.312 37.5 328.5 93.6883 328.5 163Z" stroke="#2D2E40"/>
<path id="Vector_3" opacity="0.25" d="M365.5 163C365.5 252.746 292.746 325.5 203 325.5C113.254 325.5 40.5 252.746 40.5 163C40.5 73.2537 113.254 0.5 203 0.5C292.746 0.5 365.5 73.2537 365.5 163Z" stroke="#2D2E40"/>
</g>
<g id="screen">
<mask id="mask0" mask-type="alpha" maskUnits="userSpaceOnUse" x="40" y="54" width="326" height="217">
<g id="d">
<path id="Vector_4" d="M361 54H45C42.2386 54 40 56.2386 40 59V266C40 268.761 42.2386 271 45 271H361C363.761 271 366 268.761 366 266V59C366 56.2386 363.761 54 361 54Z" fill="white"/>
</g>
</mask>
<g mask="url(#mask0)">
<g id="Group_3">
<g id="Vector_5" filter="url(#filter0_d)">
<path d="M361 54H45C42.2386 54 40 56.2386 40 59V266C40 268.761 42.2386 271 45 271H361C363.761 271 366 268.761 366 266V59C366 56.2386 363.761 54 361 54Z" fill="black"/>
</g>
<path id="Vector_6" d="M361 54H45C42.2386 54 40 56.2386 40 59V266C40 268.761 42.2386 271 45 271H361C363.761 271 366 268.761 366 266V59C366 56.2386 363.761 54 361 54Z" fill="url(#paint0_linear)"/>
</g>
<path id="Vector_7" d="M43 117.525H363C363.394 117.525 363.784 117.603 364.148 117.753C364.512 117.904 364.843 118.125 365.121 118.404C365.4 118.682 365.621 119.013 365.772 119.377C365.922 119.741 366 120.131 366 120.525V268C366 268.796 365.684 269.559 365.121 270.121C364.559 270.684 363.796 271 363 271H43C42.2044 271 41.4413 270.684 40.8787 270.121C40.3161 269.559 40 268.796 40 268V120.525C40 119.729 40.3161 118.966 40.8787 118.404C41.4413 117.841 42.2044 117.525 43 117.525V117.525Z" fill="#2D2E40"/>
<path id="Vector_8" d="M151.917 78.246H88.967C87.3102 78.246 85.967 79.5891 85.967 81.246V144.953C85.967 146.61 87.3102 147.953 88.967 147.953H151.917C153.574 147.953 154.917 146.61 154.917 144.953V81.246C154.917 79.5891 153.574 78.246 151.917 78.246Z" fill="white"/>
<path id="Vector_9" d="M120.442 133.405C131.465 133.405 140.401 124.449 140.401 113.402C140.401 102.355 131.465 93.399 120.442 93.399C109.419 93.399 100.483 102.355 100.483 113.402C100.483 124.449 109.419 133.405 120.442 133.405Z" fill="#2D2E40"/>
<path id="Vector_10" d="M317.033 78.246H169.408C167.751 78.246 166.408 79.5891 166.408 81.246V240.724C166.408 242.381 167.751 243.724 169.408 243.724H317.033C318.69 243.724 320.033 242.381 320.033 240.724V81.246C320.033 79.5891 318.69 78.246 317.033 78.246Z" fill="white"/>
</g>
</g>
<path id="Vector_11" d="M146 198C169.871 160.606 187.526 140.4 198.964 137.38C216.122 132.85 211.004 179.754 235.708 174.318C260.413 168.882 263.425 121.324 282.111 119.084C300.796 116.843 310.681 160.341 318.844 164.348C324.285 167.02 331.004 161.243 339 147.016" stroke="url(#paint1_linear)" stroke-width="8" stroke-linecap="round"/>
</g>
</g>
<defs>
<filter id="filter0_d" x="0" y="34" width="406" height="297" filterUnits="userSpaceOnUse" color-interpolation-filters="sRGB">
<feFlood flood-opacity="0" result="BackgroundImageFix"/>
<feColorMatrix in="SourceAlpha" type="matrix" values="0 0 0 0 0 0 0 0 0 0 0 0 0 0 0 0 0 0 127 0"/>
<feOffset dy="20"/>
<feGaussianBlur stdDeviation="20"/>
<feColorMatrix type="matrix" values="0 0 0 0 0.421822 0 0 0 0 0.554338 0 0 0 0 0.89371 0 0 0 0.243444 0"/>
<feBlend mode="normal" in2="BackgroundImageFix" result="effect1_dropShadow"/>
<feBlend mode="normal" in="SourceGraphic" in2="effect1_dropShadow" result="shape"/>
</filter>
<linearGradient id="paint0_linear" x1="40" y1="114.426" x2="310.256" y2="294.319" gradientUnits="userSpaceOnUse">
<stop stop-color="#FF8F71"/>
<stop offset="1" stop-color="#FF3E55"/>
</linearGradient>
<linearGradient id="paint1_linear" x1="146" y1="151.882" x2="315.946" y2="221.443" gradientUnits="userSpaceOnUse">
<stop stop-color="#FF8F71"/>
<stop offset="1" stop-color="#FF3E55"/>
</linearGradient>
</defs>
</svg>
